<?xml version="1.0" encoding="UTF-8"?>
<svg xmlns="http://www.w3.org/2000/svg" xmlns:xlink="http://www.w3.org/1999/xlink" width="50pt" height="50pt" viewBox="0 0 50 50" version="1.1">
<g id="surface1">
<path style=" stroke:none;fill-rule:nonzero;fill:rgb(100%,100%,100%);fill-opacity:1;" d="M 14.558594 17.089844 C 8.851562 22.800781 4.140625 27.539062 4.089844 27.609375 C 3.859375 27.96875 4.070312 28.578125 4.5 28.828125 C 5.171875 29.230469 4.558594 29.789062 15.171875 19.179688 L 25 9.351562 L 34.828125 19.179688 C 43.941406 28.28125 44.679688 29 44.988281 29 C 45.628906 29 46.230469 28.109375 45.910156 27.609375 C 45.78125 27.410156 25.070312 6.699219 25 6.699219 C 24.960938 6.699219 20.261719 11.371094 14.558594 17.089844 Z M 14.558594 17.089844 "/>
<path style=" stroke:none;fill-rule:nonzero;fill:rgb(100%,100%,100%);fill-opacity:1;" d="M 14.46875 30.179688 C 3.351562 41.300781 3.820312 40.789062 4.109375 41.429688 C 4.171875 41.558594 4.339844 41.738281 4.5 41.828125 C 5.171875 42.230469 4.558594 42.789062 15.171875 32.179688 L 25 22.351562 L 34.828125 32.179688 C 43.941406 41.28125 44.679688 42 44.988281 42 C 45.640625 42 46.230469 41.109375 45.910156 40.609375 C 45.789062 40.421875 25.070312 19.699219 25 19.699219 C 24.96875 19.699219 20.238281 24.410156 14.46875 30.179688 Z M 14.46875 30.179688 "/>
</g>
</svg>
