<?xml version="1.0" encoding="UTF-8"?>
<svg xmlns="http://www.w3.org/2000/svg" xmlns:xlink="http://www.w3.org/1999/xlink" width="35pt" height="35pt" viewBox="0 0 35 35" version="1.1">
<g id="surface1">
<path style=" stroke:none;fill-rule:nonzero;fill:rgb(100%,100%,100%);fill-opacity:1;" d="M 10.191406 11.960938 C 6.195312 15.960938 2.898438 19.277344 2.859375 19.328125 C 2.703125 19.582031 2.851562 20.007812 3.148438 20.183594 C 3.621094 20.464844 3.191406 20.855469 10.625 13.429688 L 17.503906 6.542969 L 24.382812 13.429688 C 30.761719 19.796875 31.28125 20.304688 31.496094 20.304688 C 31.941406 20.304688 32.367188 19.675781 32.140625 19.328125 C 32.046875 19.191406 17.554688 4.691406 17.503906 4.691406 C 17.476562 4.691406 14.183594 7.960938 10.191406 11.960938 Z M 10.191406 11.960938 "/>
<path style=" stroke:none;fill-rule:nonzero;fill:rgb(100%,100%,100%);fill-opacity:1;" d="M 10.128906 21.125 C 2.347656 28.914062 2.671875 28.554688 2.878906 29.003906 C 2.921875 29.089844 3.039062 29.21875 3.148438 29.285156 C 3.621094 29.566406 3.191406 29.957031 10.625 22.527344 L 17.503906 15.644531 L 24.382812 22.527344 C 30.761719 28.898438 31.28125 29.398438 31.496094 29.398438 C 31.953125 29.398438 32.367188 28.777344 32.140625 28.429688 C 32.050781 28.296875 17.554688 13.789062 17.503906 13.789062 C 17.480469 13.789062 14.167969 17.089844 10.128906 21.125 Z M 10.128906 21.125 "/>
</g>
</svg>
