<?xml version="1.0" encoding="UTF-8"?>
<svg xmlns="http://www.w3.org/2000/svg" xmlns:xlink="http://www.w3.org/1999/xlink" width="50pt" height="46pt" viewBox="0 0 50 46" version="1.1">
<g id="surface1">
<path style=" stroke:none;fill-rule:nonzero;fill:rgb(95.294118%,62.352941%,9.411765%);fill-opacity:1;" d="M 23.261719 0.40625 C 16.382812 0.988281 10.25 4.878906 7.375 10.5 C 6.089844 12.976562 5.707031 14.601562 5.589844 17.839844 L 5.511719 20.269531 L 4.265625 20.34375 C 3.214844 20.390625 2.898438 20.460938 2.308594 20.746094 C 1.480469 21.160156 0.796875 21.871094 0.445312 22.703125 C 0.207031 23.257812 0.195312 23.664062 0.195312 29.105469 C 0.195312 34.644531 0.207031 34.941406 0.457031 35.554688 C 0.8125 36.410156 1.613281 37.203125 2.53125 37.609375 L 3.28125 37.941406 L 9.976562 37.941406 L 10.039062 26.734375 C 10.132812 14.378906 10.066406 15.289062 10.945312 13.15625 C 12.757812 8.804688 16.933594 5.601562 22.144531 4.605469 C 23.574219 4.332031 26.515625 4.332031 27.867188 4.605469 C 31.113281 5.257812 33.699219 6.5625 35.902344 8.660156 C 37.992188 10.652344 39.34375 13.132812 39.84375 15.859375 C 39.921875 16.308594 39.972656 20.734375 39.972656 27.300781 L 39.972656 38.011719 L 43.359375 37.976562 C 46.484375 37.941406 46.773438 37.914062 47.339844 37.691406 C 48.21875 37.324219 48.964844 36.660156 49.386719 35.886719 L 49.753906 35.210938 L 49.792969 29.355469 C 49.832031 22.785156 49.832031 22.773438 48.914062 21.683594 C 48.191406 20.816406 47.21875 20.414062 45.695312 20.328125 L 44.503906 20.269531 L 44.421875 17.898438 C 44.359375 15.988281 44.277344 15.277344 44.003906 14.222656 C 43.125 10.726562 41.507812 8.054688 38.738281 5.554688 C 36.324219 3.382812 33.816406 1.996094 30.71875 1.132812 C 28.367188 0.480469 25.585938 0.21875 23.261719 0.40625 Z M 23.261719 0.40625 "/>
<path style=" stroke:none;fill-rule:nonzero;fill:rgb(95.294118%,62.352941%,9.411765%);fill-opacity:1;" d="M 16.605469 15.457031 C 15.503906 15.765625 14.398438 16.617188 13.835938 17.601562 L 13.519531 18.136719 L 13.480469 29.960938 L 13.453125 41.769531 L 13.730469 42.46875 C 13.941406 42.980469 14.214844 43.335938 14.820312 43.867188 C 16.210938 45.113281 15.582031 45.054688 26.777344 45.054688 L 36.363281 45.054688 L 36.402344 44.664062 C 36.441406 44.34375 36.351562 44.175781 35.96875 43.785156 C 34.539062 42.363281 34.484375 40.15625 35.835938 38.652344 L 36.429688 38 L 36.429688 15.347656 L 26.6875 15.363281 C 21.316406 15.363281 16.789062 15.410156 16.605469 15.457031 Z M 34.460938 38.070312 C 34.460938 38.117188 34.261719 38.496094 34.039062 38.9375 C 33.617188 39.683594 33.605469 39.765625 33.605469 41.140625 C 33.605469 42.363281 33.644531 42.648438 33.90625 43.144531 C 34.066406 43.464844 34.195312 43.738281 34.195312 43.761719 C 34.195312 43.796875 30.3125 43.796875 25.558594 43.785156 L 16.90625 43.75 L 16.261719 43.394531 C 14.003906 42.125 14.375 39.007812 16.894531 38.222656 C 17.535156 38.023438 18.179688 38.011719 26.03125 38 C 30.664062 38 34.460938 38.035156 34.460938 38.070312 Z M 34.460938 38.070312 "/>
</g>
</svg>
