<?xml version="1.0" encoding="UTF-8"?>
<svg xmlns="http://www.w3.org/2000/svg" xmlns:xlink="http://www.w3.org/1999/xlink" width="50pt" height="46pt" viewBox="0 0 50 46" version="1.1">
<g id="surface1">
<path style=" stroke:none;fill-rule:nonzero;fill:rgb(95.294118%,62.352941%,9.411765%);fill-opacity:1;" d="M 44.117188 0.0585938 C 39.476562 0.300781 36.066406 0.96875 32.753906 2.308594 C 29.777344 3.5 26.984375 5.359375 25.507812 7.125 L 25.171875 7.523438 L 24.617188 6.921875 C 23.367188 5.570312 21.84375 4.429688 19.867188 3.382812 C 16.183594 1.425781 11.839844 0.347656 6.648438 0.0976562 C 5.097656 0.0234375 5.097656 0.0234375 4.921875 0.414062 L 4.808594 0.660156 L 4.792969 17.957031 C 4.78125 35.09375 4.78125 35.253906 4.886719 35.453125 C 4.933594 35.5625 5.082031 35.742188 5.195312 35.84375 C 5.5625 36.175781 5.742188 36.210938 7.222656 36.257812 C 9.152344 36.324219 10.238281 36.433594 11.90625 36.730469 C 15.796875 37.429688 19.5625 38.757812 23.699219 40.90625 L 25.164062 41.664062 L 26.675781 40.875 C 27.523438 40.441406 28.53125 39.945312 28.929688 39.765625 C 33.894531 37.53125 38.472656 36.386719 42.882812 36.277344 C 43.519531 36.257812 44.175781 36.222656 44.347656 36.199219 C 44.738281 36.132812 45.113281 35.914062 45.320312 35.65625 L 45.476562 35.449219 L 45.476562 0.554688 L 45.367188 0.339844 C 45.289062 0.1875 45.191406 0.101562 45.085938 0.0585938 C 44.992188 0.0273438 44.921875 0.00390625 44.917969 0.00390625 C 44.910156 0.0078125 44.550781 0.03125 44.117188 0.0585938 Z M 26.378906 24.355469 L 26.378906 38.851562 L 23.960938 38.851562 L 23.960938 9.859375 L 26.378906 9.859375 Z M 26.378906 24.355469 "/>
<path style=" stroke:none;fill-rule:nonzero;fill:rgb(95.294118%,62.352941%,9.411765%);fill-opacity:1;" d="M 0.128906 5.117188 L 0 5.246094 L 0.0078125 23.15625 L 0.0273438 41.082031 L 0.296875 41.355469 L 2.601562 41.347656 C 3.871094 41.339844 5.398438 41.363281 5.988281 41.398438 C 10.792969 41.640625 14.488281 42.246094 17.507812 43.273438 C 19.523438 43.960938 20.953125 44.746094 22.117188 45.808594 L 22.566406 46.222656 L 27.773438 46.222656 L 28.066406 45.964844 C 31.078125 43.292969 36.042969 41.746094 42.933594 41.339844 C 44.105469 41.273438 47.878906 41.269531 49.101562 41.335938 C 49.570312 41.363281 49.996094 41.363281 50.054688 41.339844 C 50.109375 41.324219 50.207031 41.246094 50.257812 41.183594 C 50.363281 41.066406 50.363281 40.984375 50.378906 23.113281 C 50.390625 6.820312 50.378906 5.144531 50.304688 5.070312 C 50.242188 4.988281 50.066406 4.980469 49.203125 4.980469 C 48.28125 4.980469 48.179688 4.988281 48.070312 5.082031 L 47.949219 5.183594 L 47.921875 21.664062 C 47.898438 34.796875 47.878906 38.15625 47.824219 38.253906 C 47.726562 38.433594 47.449219 38.632812 47.203125 38.691406 C 47.066406 38.722656 46.203125 38.746094 45.113281 38.746094 C 41.964844 38.746094 39.535156 38.917969 36.832031 39.332031 C 32.21875 40.023438 28.328125 41.441406 26.078125 43.242188 C 25.835938 43.445312 25.53125 43.71875 25.40625 43.855469 L 25.175781 44.09375 L 24.828125 43.75 C 22.355469 41.355469 17.164062 39.59375 10.792969 38.988281 C 9.027344 38.820312 8.328125 38.792969 5.753906 38.75 C 3.832031 38.726562 3.070312 38.695312 2.957031 38.644531 C 2.78125 38.570312 2.589844 38.402344 2.503906 38.246094 C 2.457031 38.160156 2.4375 34.007812 2.414062 21.664062 L 2.390625 5.183594 L 2.265625 5.082031 C 2.15625 4.988281 2.058594 4.980469 1.199219 4.980469 C 0.261719 4.980469 0.253906 4.980469 0.128906 5.117188 Z M 0.128906 5.117188 "/>
</g>
</svg>
