<?xml version="1.0" encoding="UTF-8"?>
<svg xmlns="http://www.w3.org/2000/svg" xmlns:xlink="http://www.w3.org/1999/xlink" width="45pt" height="41pt" viewBox="0 0 45 41" version="1.1">
<g id="surface1">
<path style=" stroke:none;fill-rule:nonzero;fill:rgb(95.294118%,62.352941%,9.411765%);fill-opacity:1;" d="M 39.527344 0.0507812 C 35.371094 0.265625 32.316406 0.859375 29.347656 2.046875 C 26.679688 3.105469 24.179688 4.753906 22.855469 6.320312 L 22.554688 6.671875 L 22.058594 6.140625 C 20.9375 4.941406 19.570312 3.929688 17.800781 3 C 14.5 1.265625 10.609375 0.308594 5.957031 0.0859375 C 4.566406 0.0195312 4.566406 0.0195312 4.410156 0.367188 L 4.308594 0.585938 L 4.292969 15.925781 C 4.285156 31.125 4.285156 31.269531 4.378906 31.445312 C 4.421875 31.542969 4.554688 31.703125 4.65625 31.792969 C 4.984375 32.085938 5.144531 32.117188 6.472656 32.160156 C 8.199219 32.21875 9.171875 32.316406 10.667969 32.578125 C 14.152344 33.199219 17.527344 34.375 21.234375 36.28125 L 22.546875 36.953125 L 23.902344 36.253906 C 24.660156 35.871094 25.5625 35.429688 25.921875 35.269531 C 30.371094 33.289062 34.472656 32.273438 38.421875 32.175781 C 38.992188 32.160156 39.582031 32.128906 39.734375 32.105469 C 40.085938 32.046875 40.421875 31.855469 40.605469 31.625 L 40.746094 31.441406 L 40.746094 0.492188 L 40.648438 0.300781 C 40.578125 0.167969 40.492188 0.0898438 40.398438 0.0507812 C 40.3125 0.0234375 40.25 0.00390625 40.246094 0.00390625 C 40.238281 0.0078125 39.917969 0.0273438 39.527344 0.0507812 Z M 23.636719 21.601562 L 23.636719 34.460938 L 21.46875 34.460938 L 21.46875 8.746094 L 23.636719 8.746094 Z M 23.636719 21.601562 "/>
<path style=" stroke:none;fill-rule:nonzero;fill:rgb(95.294118%,62.352941%,9.411765%);fill-opacity:1;" d="M 0.117188 4.539062 L 0 4.652344 L 0.0078125 20.539062 L 0.0234375 36.4375 L 0.265625 36.679688 L 2.332031 36.671875 C 3.46875 36.667969 4.835938 36.6875 5.367188 36.71875 C 9.671875 36.933594 12.980469 37.46875 15.6875 38.382812 C 17.492188 38.992188 18.773438 39.6875 19.816406 40.628906 L 20.21875 40.996094 L 24.886719 40.996094 L 25.148438 40.769531 C 27.847656 38.398438 32.292969 37.027344 38.46875 36.667969 C 39.519531 36.609375 42.898438 36.605469 43.996094 36.664062 C 44.414062 36.6875 44.796875 36.6875 44.847656 36.667969 C 44.898438 36.652344 44.984375 36.582031 45.03125 36.527344 C 45.125 36.425781 45.125 36.351562 45.140625 20.5 C 45.148438 6.050781 45.140625 4.5625 45.074219 4.496094 C 45.015625 4.425781 44.859375 4.417969 44.085938 4.417969 C 43.261719 4.417969 43.167969 4.425781 43.070312 4.507812 L 42.960938 4.597656 L 42.9375 19.214844 C 42.917969 30.863281 42.898438 33.84375 42.851562 33.929688 C 42.761719 34.089844 42.515625 34.265625 42.292969 34.316406 C 42.171875 34.34375 41.398438 34.367188 40.421875 34.367188 C 37.601562 34.367188 35.421875 34.519531 33 34.886719 C 28.867188 35.5 25.382812 36.757812 23.367188 38.355469 C 23.148438 38.535156 22.875 38.777344 22.765625 38.898438 L 22.558594 39.109375 L 22.246094 38.804688 C 20.03125 36.679688 15.378906 35.117188 9.671875 34.582031 C 8.089844 34.433594 7.460938 34.40625 5.15625 34.371094 C 3.433594 34.347656 2.75 34.320312 2.648438 34.277344 C 2.492188 34.210938 2.320312 34.0625 2.242188 33.921875 C 2.203125 33.847656 2.183594 30.164062 2.164062 19.214844 L 2.140625 4.597656 L 2.03125 4.507812 C 1.933594 4.425781 1.84375 4.417969 1.074219 4.417969 C 0.234375 4.417969 0.226562 4.417969 0.117188 4.539062 Z M 0.117188 4.539062 "/>
</g>
</svg>
