<?xml version="1.0" encoding="UTF-8"?>
<svg xmlns="http://www.w3.org/2000/svg" xmlns:xlink="http://www.w3.org/1999/xlink" width="50pt" height="46pt" viewBox="0 0 50 46" version="1.1">
<g id="surface1">
<path style=" stroke:none;fill-rule:nonzero;fill:rgb(95.294118%,62.352941%,9.411765%);fill-opacity:1;" d="M 22.695312 0.386719 C 20.171875 1.074219 18.238281 2.832031 17.445312 5.136719 C 16.058594 9.15625 18.726562 13.441406 23.140625 14.3125 C 24.359375 14.554688 25.121094 14.554688 26.332031 14.3125 C 29.136719 13.757812 31.332031 11.824219 32.140625 9.183594 C 32.433594 8.289062 32.457031 6.574219 32.210938 5.613281 C 31.609375 3.164062 29.3125 0.992188 26.617188 0.339844 C 25.546875 0.0703125 23.753906 0.101562 22.695312 0.386719 Z M 22.695312 0.386719 "/>
<path style=" stroke:none;fill-rule:nonzero;fill:rgb(95.294118%,62.352941%,9.411765%);fill-opacity:1;" d="M 4.355469 3.261719 C 1.144531 4.332031 -0.550781 7.246094 0.265625 10.226562 C 1.039062 13.035156 4.097656 14.890625 7.132812 14.402344 C 9.570312 14.007812 11.507812 12.402344 12.09375 10.226562 C 12.863281 7.511719 11.449219 4.742188 8.699219 3.53125 C 7.863281 3.164062 7.554688 3.097656 6.402344 3.082031 C 5.390625 3.039062 4.890625 3.089844 4.355469 3.261719 Z M 4.355469 3.261719 "/>
<path style=" stroke:none;fill-rule:nonzero;fill:rgb(95.294118%,62.352941%,9.411765%);fill-opacity:1;" d="M 47.648438 15.964844 C 47.1875 16.140625 39.535156 21.53125 38.964844 22.097656 C 38.324219 22.714844 37.671875 23.8125 37.371094 24.824219 C 37.167969 25.46875 37.140625 26.261719 37.1875 30.765625 C 37.222656 35.8125 37.242188 35.957031 37.546875 36.605469 C 37.988281 37.546875 38.269531 37.972656 38.753906 38.570312 C 39.171875 39.074219 46.546875 44.34375 47.421875 44.765625 C 48.304688 45.191406 49.15625 44.910156 49.359375 44.167969 C 49.402344 43.992188 49.410156 37.703125 49.402344 30.183594 L 49.359375 16.519531 L 49.015625 16.171875 C 48.667969 15.824219 48.207031 15.753906 47.648438 15.964844 Z M 47.648438 15.964844 "/>
<path style=" stroke:none;fill-rule:nonzero;fill:rgb(95.294118%,62.352941%,9.411765%);fill-opacity:1;" d="M 2.148438 17.617188 C 1.800781 17.714844 1.296875 18.011719 0.992188 18.285156 C -0.0078125 19.222656 0.0390625 18.628906 0.0742188 30.691406 L 0.125 41.5 L 0.519531 42.050781 C 0.726562 42.355469 1.164062 42.761719 1.492188 42.964844 L 2.078125 43.328125 L 16.757812 43.371094 C 33.320312 43.410156 32.160156 43.476562 33.210938 42.382812 C 33.511719 42.050781 33.8125 41.5625 33.871094 41.300781 C 33.9375 41.03125 33.976562 36.886719 33.976562 32.058594 L 33.976562 23.28125 L 23.160156 23.246094 L 12.320312 23.21875 L 12.320312 20.316406 L 33.90625 20.316406 L 33.90625 19.988281 C 33.90625 19.148438 33.25 18.246094 32.28125 17.773438 L 31.726562 17.480469 L 17.257812 17.457031 C 5.128906 17.425781 2.699219 17.457031 2.148438 17.617188 Z M 10.96875 32.316406 C 12.9375 33.558594 12.789062 36.316406 10.703125 37.324219 C 9.152344 38.0625 7.273438 37.511719 6.5 36.078125 C 5.765625 34.691406 6.386719 32.878906 7.839844 32.199219 C 8.699219 31.792969 10.222656 31.839844 10.96875 32.316406 Z M 10.96875 32.316406 "/>
</g>
</svg>
