<?xml version="1.0" encoding="UTF-8"?>
<svg xmlns="http://www.w3.org/2000/svg" xmlns:xlink="http://www.w3.org/1999/xlink" width="50pt" height="54pt" viewBox="0 0 50 54" version="1.1">
<g id="surface1">
<path style=" stroke:none;fill-rule:nonzero;fill:rgb(95.294118%,62.352941%,9.411765%);fill-opacity:1;" d="M 11.789062 0.195312 C 11.070312 0.445312 10.320312 1.210938 10.132812 1.871094 C 10.015625 2.316406 9.472656 7.039062 9.535156 7.101562 C 9.558594 7.121094 10.164062 7.101562 10.882812 7.070312 L 12.1875 7 L 12.25 6.574219 C 12.28125 6.335938 12.386719 5.375 12.480469 4.414062 C 12.582031 3.402344 12.699219 2.6875 12.761719 2.6875 C 12.855469 2.6875 18.59375 3.277344 41.265625 5.632812 C 43.164062 5.828125 45.253906 6.046875 45.910156 6.109375 C 46.566406 6.179688 47.140625 6.265625 47.191406 6.304688 C 47.234375 6.335938 47.078125 8.15625 46.847656 10.347656 C 46.621094 12.527344 45.890625 19.433594 45.230469 25.6875 C 44.574219 31.929688 44.03125 37.078125 44.03125 37.121094 C 44.03125 37.160156 43.769531 37.171875 43.457031 37.140625 L 42.882812 37.078125 L 42.882812 37.738281 C 42.882812 38.101562 42.976562 40.28125 43.09375 42.589844 C 43.207031 44.894531 43.300781 47.023438 43.300781 47.3125 C 43.300781 47.808594 43.320312 47.859375 43.542969 47.859375 C 43.886719 47.859375 44.773438 47.40625 45.097656 47.074219 C 45.722656 46.414062 45.773438 46.152344 46.328125 40.871094 C 47.003906 34.339844 47.703125 27.703125 48.777344 17.574219 C 49.257812 12.992188 49.730469 8.539062 49.824219 7.671875 C 50.019531 5.746094 49.925781 5.242188 49.238281 4.496094 C 48.621094 3.835938 48.101562 3.660156 46.171875 3.472656 C 45.253906 3.378906 42.71875 3.121094 40.535156 2.894531 C 38.355469 2.667969 33.847656 2.203125 30.519531 1.859375 C 27.191406 1.507812 22.027344 0.980469 19.042969 0.671875 C 11.832031 -0.0820312 12.46875 -0.0429688 11.789062 0.195312 Z M 11.789062 0.195312 "/>
<path style=" stroke:none;fill-rule:nonzero;fill:rgb(95.294118%,62.352941%,9.411765%);fill-opacity:1;" d="M 30.832031 7.546875 C 27.390625 7.710938 19.523438 8.074219 13.355469 8.351562 C 1.023438 8.921875 1.679688 8.847656 0.898438 9.59375 C 0.25 10.210938 0.105469 10.625 0.105469 11.960938 C 0.105469 12.589844 0.3125 17.613281 0.574219 23.125 C 0.835938 28.621094 1.230469 37.191406 1.460938 42.152344 C 1.929688 52.273438 1.867188 51.796875 2.734375 52.574219 C 3.402344 53.164062 3.765625 53.277344 4.957031 53.253906 C 6.125 53.234375 37.34375 51.828125 38.960938 51.726562 C 39.785156 51.675781 40.085938 51.601562 40.515625 51.382812 C 41.132812 51.074219 41.671875 50.433594 41.863281 49.804688 C 41.996094 49.339844 42.039062 50.433594 41.265625 33.851562 C 41.015625 28.332031 40.660156 20.644531 40.484375 16.746094 C 40.265625 11.867188 40.109375 9.5 40.015625 9.148438 C 39.722656 8.125 38.785156 7.390625 37.644531 7.296875 C 37.34375 7.277344 34.277344 7.390625 30.832031 7.546875 Z M 37.5 10.359375 C 37.53125 10.605469 37.582031 11.527344 37.613281 12.402344 C 37.644531 13.28125 37.769531 15.960938 37.886719 18.347656 C 38.511719 31.753906 38.910156 40.882812 38.835938 40.945312 C 38.792969 40.984375 34.371094 41.203125 29.007812 41.441406 C 23.644531 41.6875 15.871094 42.03125 11.738281 42.226562 C 7.605469 42.414062 4.203125 42.546875 4.183594 42.527344 C 4.140625 42.484375 2.703125 11.558594 2.746094 11.515625 C 2.753906 11.503906 7.0625 11.296875 12.3125 11.058594 C 17.558594 10.824219 25.125 10.472656 29.109375 10.285156 C 33.097656 10.097656 36.601562 9.945312 36.90625 9.933594 L 37.449219 9.921875 Z M 37.5 10.359375 "/>
<path style=" stroke:none;fill-rule:nonzero;fill:rgb(95.294118%,62.352941%,9.411765%);fill-opacity:1;" d="M 30.1875 13.789062 C 29.558594 13.984375 29.078125 14.304688 28.546875 14.894531 C 26.917969 16.695312 27.535156 19.609375 29.757812 20.632812 C 30.332031 20.890625 30.539062 20.933594 31.355469 20.933594 C 32.167969 20.933594 32.367188 20.890625 32.886719 20.644531 C 34.496094 19.855469 35.339844 18.109375 34.914062 16.4375 C 34.597656 15.183594 33.609375 14.152344 32.417969 13.800781 C 31.78125 13.613281 30.78125 13.613281 30.1875 13.789062 Z M 30.1875 13.789062 "/>
<path style=" stroke:none;fill-rule:nonzero;fill:rgb(95.294118%,62.352941%,9.411765%);fill-opacity:1;" d="M 14.085938 19.558594 C 13.679688 19.765625 13.105469 20.46875 9.628906 25.015625 C 7.441406 27.878906 5.539062 30.453125 5.414062 30.742188 C 5.300781 31.019531 5.175781 31.484375 5.144531 31.785156 C 5.09375 32.304688 5.375 39.828125 5.488281 40.675781 L 5.53125 41.089844 L 11.613281 40.820312 C 14.953125 40.664062 22.097656 40.34375 27.492188 40.105469 C 32.886719 39.871094 37.332031 39.640625 37.375 39.601562 C 37.480469 39.507812 37.070312 31.300781 36.9375 30.835938 C 36.882812 30.617188 36.695312 30.203125 36.519531 29.90625 C 36.082031 29.148438 33.367188 26.308594 32.949219 26.164062 C 32.40625 25.976562 31.605469 26.027344 31.167969 26.285156 C 30.949219 26.410156 29.820312 27.621094 28.527344 29.097656 C 27.296875 30.515625 26.253906 31.691406 26.210938 31.703125 C 26.167969 31.714844 23.957031 29.058594 21.285156 25.800781 C 18.613281 22.535156 16.277344 19.765625 16.089844 19.628906 C 15.566406 19.277344 14.691406 19.246094 14.085938 19.558594 Z M 14.085938 19.558594 "/>
</g>
</svg>
