<?xml version="1.0" standalone="no"?>
<!DOCTYPE svg PUBLIC "-//W3C//DTD SVG 20010904//EN"
 "http://www.w3.org/TR/2001/REC-SVG-20010904/DTD/svg10.dtd">
<svg version="1.0" xmlns="http://www.w3.org/2000/svg"
 width="900.000000pt" height="600.000000pt" viewBox="0 0 900.000000 600.000000"
 preserveAspectRatio="xMidYMid meet">

<g transform="translate(0.000000,600.000000) scale(0.100000,-0.100000)"
fill="#f39f18" stroke="none">
<path d="M3580 5975 c-570 -88 -1067 -301 -1500 -645 -137 -108 -403 -377
-506 -510 -311 -402 -507 -824 -603 -1296 -41 -202 -51 -316 -51 -583 0 -356
24 -540 111 -851 226 -807 695 -1422 1330 -1745 261 -133 464 -181 732 -172
176 5 262 22 404 77 412 158 751 615 813 1095 7 49 5 128 -7 269 -17 217 -12
283 29 393 29 80 121 171 203 203 49 19 79 24 165 24 58 0 124 -5 146 -12 l41
-12 -137 -273 c-320 -637 -406 -944 -314 -1125 51 -100 162 -153 276 -132 142
26 301 141 573 414 205 206 388 412 646 731 l146 180 82 34 c301 124 564 368
710 658 77 153 110 290 127 525 6 93 8 101 51 170 25 40 123 201 218 358 207
343 217 360 230 360 6 0 43 16 83 35 255 122 459 414 492 705 13 112 13 402 0
530 -18 174 -100 423 -156 475 -46 43 -66 34 -178 -74 -126 -121 -178 -151
-429 -245 -107 -41 -234 -93 -282 -117 -354 -173 -539 -416 -522 -684 l5 -80
-31 36 c-18 20 -55 66 -83 103 -28 36 -98 118 -155 183 -381 426 -886 741
-1449 902 -294 84 -413 100 -820 106 -227 3 -317 1 -390 -10z m56 -776 c227
-42 383 -262 345 -485 -60 -342 -476 -476 -720 -233 -236 236 -117 644 209
715 71 16 94 16 166 3z m1595 -369 c173 -33 311 -175 342 -354 30 -179 -71
-369 -240 -449 -64 -30 -75 -32 -178 -32 -149 0 -203 21 -301 119 -98 98 -119
152 -119 301 0 105 2 114 34 179 87 178 271 272 462 236z m1572 -566 c39 -30
114 -76 164 -101 87 -42 92 -46 81 -66 -6 -12 -50 -85 -96 -162 -497 -819
-1146 -1718 -1667 -2310 -130 -147 -462 -481 -471 -473 -12 13 105 296 217
523 333 679 920 1612 1529 2431 88 118 162 214 165 214 3 0 38 -25 78 -56z
m-4441 -5 c127 -27 247 -118 302 -230 104 -213 13 -470 -201 -572 -64 -30 -74
-32 -183 -32 -110 0 -118 2 -182 33 -86 42 -177 137 -209 219 -19 48 -23 77
-24 168 0 105 2 114 33 178 88 178 278 275 464 236z m-14 -1613 c98 -36 186
-119 236 -225 29 -61 31 -74 31 -171 0 -100 -2 -108 -36 -180 -128 -265 -462
-329 -672 -131 -262 248 -122 687 233 730 66 8 149 -1 208 -23z"/>
</g>
</svg>
