<?xml version="1.0" encoding="UTF-8"?>
<svg xmlns="http://www.w3.org/2000/svg" xmlns:xlink="http://www.w3.org/1999/xlink" width="50pt" height="41pt" viewBox="0 0 50 41" version="1.1">
<g id="surface1">
<path style=" stroke:none;fill-rule:nonzero;fill:rgb(95.294118%,62.352941%,9.411765%);fill-opacity:1;" d="M 23.863281 0.101562 C 22.878906 0.210938 22.277344 0.335938 21.402344 0.636719 C 17.558594 1.953125 14.449219 5.625 13.664062 9.769531 C 13.203125 12.203125 13.519531 14.683594 14.574219 16.902344 C 15.484375 18.820312 16.324219 19.925781 19.390625 23.308594 C 21.148438 25.242188 22.726562 27.523438 23.726562 29.585938 C 24.117188 30.394531 24.503906 31.078125 24.585938 31.113281 C 24.820312 31.203125 25.289062 31.167969 25.433594 31.050781 C 25.515625 30.984375 25.882812 30.304688 26.261719 29.53125 C 27.382812 27.214844 28.617188 25.496094 31.25 22.582031 C 34.089844 19.4375 35.199219 17.78125 35.894531 15.628906 C 37.742188 9.941406 35.117188 3.609375 29.898438 1.179688 C 27.96875 0.28125 25.757812 -0.117188 23.863281 0.101562 Z M 25.675781 5.453125 C 27.425781 5.644531 29.039062 6.570312 29.960938 7.933594 C 30.84375 9.25 31.167969 10.378906 31.085938 11.941406 C 31.015625 13.640625 30.519531 14.773438 29.3125 16.003906 C 28.679688 16.648438 28.410156 16.855469 27.777344 17.15625 C 26.714844 17.664062 25.820312 17.847656 24.675781 17.78125 C 22.367188 17.664062 20.417969 16.367188 19.433594 14.3125 C 18.984375 13.375 18.847656 12.75 18.847656 11.632812 C 18.847656 10.503906 18.984375 9.886719 19.453125 8.90625 C 19.804688 8.160156 19.976562 7.933594 20.6875 7.222656 C 21.140625 6.769531 21.71875 6.296875 21.960938 6.160156 C 22.691406 5.769531 23.710938 5.488281 24.757812 5.371094 C 24.8125 5.371094 25.214844 5.40625 25.675781 5.453125 Z M 25.675781 5.453125 "/>
<path style=" stroke:none;fill-rule:nonzero;fill:rgb(95.294118%,62.352941%,9.411765%);fill-opacity:1;" d="M 9.742188 23.425781 C 9.742188 23.460938 10.378906 23.871094 11.164062 24.324219 C 14.113281 26.050781 14.890625 26.507812 16.945312 27.742188 C 18.886719 28.90625 19.082031 28.996094 19.382812 28.941406 C 19.851562 28.859375 20.023438 28.804688 20.023438 28.722656 C 20.023438 28.570312 17.269531 25.46875 15.402344 23.515625 C 15.25 23.363281 15.023438 23.351562 12.492188 23.351562 C 10.976562 23.351562 9.742188 23.390625 9.742188 23.425781 Z M 9.742188 23.425781 "/>
<path style=" stroke:none;fill-rule:nonzero;fill:rgb(95.294118%,62.352941%,9.411765%);fill-opacity:1;" d="M 33.828125 24.761719 C 32.042969 26.695312 32.035156 26.722656 32.800781 26.550781 C 33.035156 26.496094 33.929688 26.324219 34.765625 26.171875 C 35.613281 26.015625 36.789062 25.789062 37.382812 25.671875 C 37.976562 25.550781 38.671875 25.425781 38.914062 25.398438 C 39.808594 25.28125 42.035156 24.808594 42.289062 24.679688 C 42.433594 24.597656 42.570312 24.472656 42.605469 24.390625 C 42.675781 24.1875 42.378906 23.851562 41.890625 23.597656 C 41.550781 23.40625 41.414062 23.398438 38.328125 23.371094 L 35.128906 23.34375 Z M 33.828125 24.761719 "/>
<path style=" stroke:none;fill-rule:nonzero;fill:rgb(95.294118%,62.352941%,9.411765%);fill-opacity:1;" d="M 6.023438 26.597656 C 5.160156 28.46875 3.96875 31.1875 3.96875 31.304688 C 3.96875 31.378906 4.003906 31.449219 4.039062 31.476562 C 4.085938 31.503906 5.410156 31.296875 7 31.023438 C 8.578125 30.75 10.507812 30.433594 11.273438 30.304688 C 13.265625 29.976562 13.617188 29.894531 13.617188 29.769531 C 13.617188 29.703125 12.671875 29.105469 11.527344 28.441406 C 10.371094 27.769531 8.8125 26.859375 8.0625 26.425781 C 7.3125 25.988281 6.648438 25.625 6.59375 25.625 C 6.53125 25.625 6.277344 26.0625 6.023438 26.597656 Z M 6.023438 26.597656 "/>
<path style=" stroke:none;fill-rule:nonzero;fill:rgb(95.294118%,62.352941%,9.411765%);fill-opacity:1;" d="M 40.855469 27.667969 C 39.339844 27.933594 37.617188 28.242188 37.023438 28.351562 C 36.425781 28.460938 34.523438 28.789062 32.792969 29.085938 C 30.332031 29.503906 29.617188 29.660156 29.527344 29.777344 C 28.75 30.785156 27.09375 33.558594 27.183594 33.695312 C 27.246094 33.804688 29.796875 35.230469 31.023438 35.847656 C 31.492188 36.09375 32.414062 36.59375 33.054688 36.964844 C 33.703125 37.347656 34.503906 37.808594 34.847656 38 C 35.40625 38.308594 36.21875 38.808594 38.789062 40.417969 L 39.699219 40.980469 L 44.34375 40.980469 C 49.234375 40.980469 49.351562 40.972656 49.710938 40.5625 C 50.007812 40.21875 49.992188 39.964844 49.621094 39.246094 C 49.207031 38.464844 47.761719 35.320312 47.3125 34.230469 C 47.003906 33.484375 45.960938 31.105469 44.929688 28.824219 C 44.238281 27.277344 44.164062 27.167969 43.847656 27.179688 C 43.714844 27.1875 42.371094 27.40625 40.855469 27.667969 Z M 40.855469 27.667969 "/>
<path style=" stroke:none;fill-rule:nonzero;fill:rgb(95.294118%,62.352941%,9.411765%);fill-opacity:1;" d="M 14.699219 32.3125 C 12.15625 32.777344 8.910156 33.347656 5.546875 33.941406 C 4.257812 34.167969 3.039062 34.402344 2.839844 34.464844 C 2.425781 34.59375 2.425781 34.59375 1.164062 37.390625 C -0.109375 40.21875 -0.046875 40.027344 0.0898438 40.355469 C 0.152344 40.507812 0.316406 40.699219 0.441406 40.78125 C 0.648438 40.925781 1.902344 40.9375 16.863281 40.964844 C 31.664062 40.980469 33.035156 40.972656 32.875 40.835938 C 32.640625 40.65625 31.800781 40.15625 30.132812 39.21875 C 29.410156 38.808594 27.210938 37.539062 25.253906 36.402344 C 17.34375 31.796875 17.515625 31.894531 17.207031 31.902344 C 17.046875 31.902344 15.917969 32.09375 14.699219 32.3125 Z M 14.699219 32.3125 "/>
</g>
</svg>
