<?xml version="1.0" encoding="UTF-8"?>
<svg xmlns="http://www.w3.org/2000/svg" xmlns:xlink="http://www.w3.org/1999/xlink" width="50pt" height="41pt" viewBox="0 0 50 41" version="1.1">
<g id="surface1">
<path style=" stroke:none;fill-rule:nonzero;fill:rgb(95.294118%,62.352941%,9.411765%);fill-opacity:1;" d="M 18.386719 0.199219 C 14.464844 0.808594 11.042969 2.292969 8.066406 4.679688 C 7.125 5.429688 5.292969 7.296875 4.582031 8.222656 C 2.445312 11.007812 1.09375 13.941406 0.433594 17.21875 C 0.152344 18.621094 0.0820312 19.414062 0.0820312 21.265625 C 0.0820312 23.738281 0.25 25.019531 0.847656 27.175781 C 2.40625 32.78125 5.628906 37.046875 10 39.289062 C 11.792969 40.214844 13.191406 40.546875 15.035156 40.488281 C 16.246094 40.453125 16.839844 40.332031 17.816406 39.949219 C 20.648438 38.855469 22.980469 35.679688 23.410156 32.351562 C 23.457031 32.007812 23.445312 31.460938 23.359375 30.480469 C 23.242188 28.972656 23.277344 28.515625 23.558594 27.753906 C 23.761719 27.195312 24.390625 26.566406 24.957031 26.34375 C 25.289062 26.210938 25.496094 26.175781 26.089844 26.175781 C 26.492188 26.175781 26.945312 26.210938 27.09375 26.257812 L 27.375 26.34375 L 26.433594 28.238281 C 24.230469 32.664062 23.640625 34.789062 24.273438 36.050781 C 24.625 36.742188 25.386719 37.113281 26.175781 36.96875 C 27.152344 36.785156 28.246094 35.988281 30.117188 34.089844 C 31.527344 32.664062 32.785156 31.234375 34.5625 29.015625 L 35.5625 27.765625 L 36.128906 27.53125 C 38.199219 26.667969 40.011719 24.972656 41.011719 22.960938 C 41.546875 21.898438 41.769531 20.949219 41.886719 19.316406 C 41.929688 18.671875 41.941406 18.613281 42.242188 18.132812 C 42.410156 17.859375 43.085938 16.742188 43.738281 15.648438 C 45.164062 13.269531 45.230469 13.152344 45.324219 13.152344 C 45.363281 13.152344 45.617188 13.039062 45.890625 12.90625 C 47.644531 12.0625 49.046875 10.03125 49.277344 8.011719 C 49.363281 7.234375 49.363281 5.222656 49.277344 4.332031 C 49.152344 3.125 48.589844 1.394531 48.203125 1.035156 C 47.886719 0.734375 47.75 0.796875 46.980469 1.550781 C 46.109375 2.390625 45.753906 2.59375 44.027344 3.25 C 43.292969 3.53125 42.417969 3.894531 42.085938 4.058594 C 39.648438 5.261719 38.378906 6.949219 38.496094 8.808594 L 38.527344 9.363281 L 38.316406 9.113281 C 38.195312 8.976562 37.9375 8.65625 37.746094 8.402344 C 37.550781 8.152344 37.074219 7.582031 36.679688 7.128906 C 34.058594 4.171875 30.582031 1.984375 26.710938 0.867188 C 24.6875 0.28125 23.871094 0.171875 21.070312 0.132812 C 19.507812 0.109375 18.886719 0.125 18.386719 0.199219 Z M 18.769531 5.589844 C 20.332031 5.882812 21.40625 7.40625 21.144531 8.957031 C 20.730469 11.332031 17.867188 12.261719 16.191406 10.574219 C 14.566406 8.933594 15.386719 6.101562 17.628906 5.609375 C 18.117188 5.5 18.277344 5.5 18.769531 5.589844 Z M 29.746094 8.152344 C 30.933594 8.378906 31.882812 9.363281 32.097656 10.609375 C 32.304688 11.847656 31.609375 13.167969 30.445312 13.726562 C 30.003906 13.933594 29.929688 13.949219 29.222656 13.949219 C 28.199219 13.949219 27.824219 13.800781 27.152344 13.121094 C 26.472656 12.441406 26.332031 12.066406 26.332031 11.03125 C 26.332031 10.300781 26.347656 10.238281 26.566406 9.792969 C 27.164062 8.554688 28.429688 7.898438 29.746094 8.152344 Z M 40.558594 12.082031 C 40.828125 12.289062 41.34375 12.609375 41.6875 12.78125 C 42.289062 13.074219 42.320312 13.101562 42.246094 13.238281 C 42.207031 13.324219 41.902344 13.828125 41.585938 14.367188 C 38.164062 20.050781 33.699219 26.292969 30.117188 30.40625 C 29.222656 31.425781 26.9375 33.746094 26.875 33.6875 C 26.789062 33.597656 27.601562 31.632812 28.371094 30.058594 C 30.660156 25.34375 34.699219 18.863281 38.890625 13.179688 C 39.492188 12.359375 40 11.691406 40.023438 11.691406 C 40.046875 11.691406 40.285156 11.867188 40.558594 12.082031 Z M 10.003906 12.113281 C 10.878906 12.300781 11.707031 12.9375 12.085938 13.714844 C 12.796875 15.191406 12.171875 16.976562 10.699219 17.6875 C 10.257812 17.894531 10.1875 17.90625 9.441406 17.90625 C 8.683594 17.90625 8.628906 17.894531 8.1875 17.675781 C 7.597656 17.386719 6.96875 16.726562 6.75 16.15625 C 6.621094 15.820312 6.589844 15.625 6.585938 14.988281 C 6.585938 14.261719 6.601562 14.199219 6.8125 13.753906 C 7.417969 12.519531 8.722656 11.84375 10.003906 12.113281 Z M 9.90625 23.316406 C 10.585938 23.566406 11.1875 24.144531 11.535156 24.878906 C 11.730469 25.300781 11.746094 25.390625 11.746094 26.066406 C 11.746094 26.757812 11.730469 26.8125 11.5 27.3125 C 10.617188 29.15625 8.320312 29.601562 6.871094 28.222656 C 5.074219 26.5 6.039062 23.453125 8.476562 23.15625 C 8.929688 23.101562 9.503906 23.160156 9.90625 23.316406 Z M 9.90625 23.316406 "/>
</g>
</svg>
