<?xml version="1.0" encoding="UTF-8"?>
<svg xmlns="http://www.w3.org/2000/svg" xmlns:xlink="http://www.w3.org/1999/xlink" width="50pt" height="50pt" viewBox="0 0 50 50" version="1.1">
<g id="surface1">
<path style=" stroke:none;fill-rule:nonzero;fill:rgb(95.294118%,62.352941%,9.411765%);fill-opacity:1;" d="M 40.984375 6.929688 C 40.917969 7.0625 40.320312 8.109375 39.65625 9.265625 C 38.988281 10.425781 38.363281 11.539062 38.25 11.730469 C 38.140625 11.929688 37.515625 13.015625 36.863281 14.152344 C 35.90625 15.820312 29.777344 26.480469 29.1875 27.496094 C 28.773438 28.207031 28.632812 28.71875 28.179688 31.105469 C 27.800781 33.109375 27.78125 33.285156 27.964844 33.644531 C 28.011719 33.75 28.101562 33.882812 28.167969 33.941406 C 28.332031 34.101562 29.671875 34.863281 29.863281 34.90625 C 30.210938 34.988281 30.582031 34.828125 30.765625 34.515625 C 30.828125 34.40625 31.210938 33.789062 31.605469 33.152344 C 32.515625 31.691406 32.542969 31.644531 32.835938 31.011719 C 32.972656 30.714844 33.148438 30.359375 33.226562 30.210938 C 33.300781 30.0625 33.554688 29.421875 33.796875 28.796875 C 37.632812 18.617188 40.097656 12.117188 41.15625 9.339844 C 41.898438 7.40625 41.929688 7.300781 41.855469 7.226562 C 41.746094 7.101562 41.214844 6.703125 41.160156 6.703125 C 41.128906 6.703125 41.0625 6.804688 40.984375 6.929688 Z M 40.984375 6.929688 "/>
<path style=" stroke:none;fill-rule:nonzero;fill:rgb(95.294118%,62.352941%,9.411765%);fill-opacity:1;" d="M 22.191406 9.484375 C 20.316406 9.601562 18.636719 10.027344 17.050781 10.792969 C 15.058594 11.742188 13.132812 13.660156 11.597656 16.210938 C 10.167969 18.601562 8.15625 23.253906 7.300781 26.183594 C 6.726562 28.148438 6.480469 29.710938 6.480469 31.34375 C 6.480469 33.003906 6.726562 34.316406 7.300781 35.675781 C 7.789062 36.828125 9.273438 38.710938 10.546875 39.789062 C 11.289062 40.417969 12.339844 41.027344 13.15625 41.308594 C 15 41.933594 17.027344 41.703125 18.457031 40.710938 C 18.9375 40.375 19.636719 39.636719 19.960938 39.125 C 20.679688 38.003906 21.074219 36.972656 21.796875 34.339844 C 22.363281 32.277344 22.695312 31.546875 23.40625 30.78125 C 24.109375 30.011719 24.914062 29.648438 26.058594 29.574219 C 26.476562 29.546875 27.316406 29.59375 27.746094 29.671875 L 27.90625 29.699219 L 27.957031 29.136719 C 27.984375 28.816406 28.058594 28.402344 28.109375 28.195312 C 28.171875 27.992188 28.207031 27.8125 28.199219 27.804688 C 28.1875 27.796875 27.925781 27.746094 27.628906 27.699219 C 26.886719 27.589844 25.539062 27.582031 24.949219 27.695312 C 22.863281 28.085938 21.535156 29.234375 20.65625 31.375 C 20.34375 32.121094 20.117188 32.859375 19.679688 34.554688 C 19.480469 35.355469 19.265625 36.171875 19.191406 36.382812 C 18.523438 38.460938 17.164062 39.5625 15.273438 39.5625 C 14.097656 39.5625 13.007812 39.1875 11.953125 38.414062 C 11.070312 37.765625 9.632812 36.035156 9.199219 35.078125 C 8.929688 34.515625 8.683594 33.699219 8.5625 33.003906 C 8.4375 32.253906 8.417969 30.625 8.539062 29.746094 C 8.726562 28.367188 9.125 26.84375 9.785156 24.976562 C 10.710938 22.347656 11.835938 19.691406 12.648438 18.21875 C 13.410156 16.851562 14.351562 15.542969 15.257812 14.621094 C 15.921875 13.9375 16.285156 13.632812 16.980469 13.144531 C 19.710938 11.242188 23.285156 10.914062 27.859375 12.144531 C 30.496094 12.84375 32.753906 13.863281 34.570312 15.144531 C 34.871094 15.359375 35.121094 15.527344 35.132812 15.511719 C 35.144531 15.5 35.960938 14.023438 36.066406 13.832031 C 36.097656 13.78125 34.890625 12.964844 34.175781 12.546875 C 32.488281 11.570312 30.304688 10.703125 28.074219 10.132812 C 26.617188 9.753906 25.480469 9.566406 24.125 9.480469 C 23.265625 9.425781 23.074219 9.425781 22.191406 9.484375 Z M 22.191406 9.484375 "/>
<path style=" stroke:none;fill-rule:nonzero;fill:rgb(95.294118%,62.352941%,9.411765%);fill-opacity:1;" d="M 20.28125 14.828125 C 19.136719 15.144531 18.359375 16.363281 18.527344 17.582031 C 18.695312 18.824219 19.691406 19.730469 20.886719 19.730469 C 22.035156 19.730469 22.984375 18.957031 23.246094 17.8125 C 23.550781 16.488281 22.769531 15.164062 21.484375 14.824219 C 21.160156 14.730469 20.605469 14.738281 20.28125 14.828125 Z M 20.28125 14.828125 "/>
<path style=" stroke:none;fill-rule:nonzero;fill:rgb(95.294118%,62.352941%,9.411765%);fill-opacity:1;" d="M 28.121094 14.824219 C 27.453125 15.015625 26.863281 15.511719 26.566406 16.152344 C 26.113281 17.136719 26.292969 18.242188 27.035156 19.007812 C 27.519531 19.511719 28.039062 19.730469 28.746094 19.730469 C 29.882812 19.730469 30.84375 18.921875 31.082031 17.746094 C 31.167969 17.320312 31.167969 17.15625 31.082031 16.738281 C 30.894531 15.816406 30.210938 15.0625 29.328125 14.824219 C 28.992188 14.738281 28.445312 14.738281 28.121094 14.824219 Z M 28.121094 14.824219 "/>
<path style=" stroke:none;fill-rule:nonzero;fill:rgb(95.294118%,62.352941%,9.411765%);fill-opacity:1;" d="M 38.941406 17.050781 L 38.554688 18.054688 L 38.828125 18.371094 C 39.886719 19.613281 40.554688 20.769531 40.960938 22.0625 C 41.277344 23.042969 41.355469 23.519531 41.355469 24.421875 C 41.359375 25.273438 41.300781 25.695312 41.078125 26.390625 C 40.617188 27.8125 39.609375 29.164062 38.574219 29.753906 C 37.445312 30.390625 36.15625 30.507812 34.234375 30.140625 L 34.070312 30.113281 L 33.636719 31.015625 C 33.394531 31.511719 33.199219 31.929688 33.183594 31.941406 C 33.179688 31.960938 33.507812 32.03125 33.902344 32.113281 C 34.585938 32.246094 34.695312 32.253906 35.828125 32.253906 C 37.144531 32.253906 37.4375 32.21875 38.292969 31.933594 C 40.394531 31.242188 42.175781 29.394531 42.894531 27.164062 C 43.535156 25.191406 43.410156 22.84375 42.546875 20.617188 C 42.191406 19.699219 41.699219 18.8125 41.035156 17.925781 C 40.71875 17.503906 39.457031 16.085938 39.371094 16.054688 C 39.347656 16.046875 39.152344 16.492188 38.941406 17.050781 Z M 38.941406 17.050781 "/>
<path style=" stroke:none;fill-rule:nonzero;fill:rgb(95.294118%,62.352941%,9.411765%);fill-opacity:1;" d="M 15.652344 22.007812 C 15.261719 22.105469 14.867188 22.347656 14.558594 22.65625 C 13.449219 23.785156 13.640625 25.660156 14.945312 26.542969 C 15.730469 27.0625 16.78125 27.058594 17.554688 26.53125 C 18.660156 25.761719 18.976562 24.21875 18.261719 23.085938 C 17.691406 22.175781 16.65625 21.761719 15.652344 22.007812 Z M 15.652344 22.007812 "/>
<path style=" stroke:none;fill-rule:nonzero;fill:rgb(95.294118%,62.352941%,9.411765%);fill-opacity:1;" d="M 13.308594 30.347656 C 12.457031 30.558594 11.714844 31.328125 11.523438 32.179688 C 11.4375 32.570312 11.464844 33.148438 11.578125 33.539062 C 11.910156 34.601562 12.800781 35.273438 13.898438 35.269531 C 15.214844 35.261719 16.265625 34.15625 16.265625 32.777344 C 16.265625 31.167969 14.808594 29.964844 13.308594 30.347656 Z M 13.308594 30.347656 "/>
<path style=" stroke:none;fill-rule:nonzero;fill:rgb(95.294118%,62.352941%,9.411765%);fill-opacity:1;" d="M 27.285156 35.035156 C 26.820312 35.144531 26.511719 35.324219 26.148438 35.695312 C 25.761719 36.101562 25.644531 36.335938 25.417969 37.171875 C 25.054688 38.511719 24.503906 39.617188 23.703125 40.617188 C 23.316406 41.101562 22.632812 41.769531 22.222656 42.074219 C 22.039062 42.203125 21.890625 42.316406 21.886719 42.339844 C 21.886719 42.355469 21.984375 42.398438 22.109375 42.445312 C 22.832031 42.703125 23.765625 42.847656 24.445312 42.792969 C 26.992188 42.59375 29.066406 40.925781 29.863281 38.429688 C 30.011719 37.992188 30.023438 37.90625 30.023438 37.359375 C 30.023438 36.648438 29.945312 36.390625 29.59375 35.902344 C 29.074219 35.203125 28.113281 34.835938 27.285156 35.035156 Z M 27.285156 35.035156 "/>
</g>
</svg>
